<mxfile host="Electron" agent="Mozilla/5.0 (Windows NT 10.0; Win64; x64) AppleWebKit/537.36 (KHTML, like Gecko) draw.io/26.1.1 Chrome/132.0.6834.210 Electron/34.3.3 Safari/537.36" version="26.1.1">
  <diagram name="Страница — 1" id="B--iG45YOp-343qtSkZV">
    <mxGraphModel dx="1072" dy="737" grid="1" gridSize="10" guides="1" tooltips="1" connect="1" arrows="1" fold="1" page="1" pageScale="1" pageWidth="827" pageHeight="1169" math="0" shadow="0">
      <root>
        <mxCell id="0" />
        <mxCell id="1" parent="0" />
        <mxCell id="e_FghAzU6FtjZ2AyrXz8-1" value="74HC08 (И)" style="rounded=0;whiteSpace=wrap;html=1;" parent="1" vertex="1">
          <mxGeometry x="70" y="280" width="350" height="240" as="geometry" />
        </mxCell>
        <mxCell id="0ocH-njk53vqZ1iDUbSj-1" value="" style="shape=requiredInterface;html=1;verticalLabelPosition=bottom;sketch=0;" parent="1" vertex="1">
          <mxGeometry x="70" y="375" width="40" height="50" as="geometry" />
        </mxCell>
        <mxCell id="0ocH-njk53vqZ1iDUbSj-17" value="1B" style="rounded=0;whiteSpace=wrap;html=1;" parent="1" vertex="1">
          <mxGeometry x="120" y="480" width="50" height="40" as="geometry" />
        </mxCell>
        <mxCell id="2zPOfcOmFPMckhyHYjxx-12" style="edgeStyle=orthogonalEdgeStyle;rounded=0;orthogonalLoop=1;jettySize=auto;html=1;entryX=0;entryY=0.5;entryDx=0;entryDy=0;strokeColor=#FF00FF;" edge="1" parent="1" source="0ocH-njk53vqZ1iDUbSj-18" target="2zPOfcOmFPMckhyHYjxx-10">
          <mxGeometry relative="1" as="geometry">
            <Array as="points">
              <mxPoint x="195" y="565" />
            </Array>
          </mxGeometry>
        </mxCell>
        <mxCell id="0ocH-njk53vqZ1iDUbSj-18" value="1Y" style="rounded=0;whiteSpace=wrap;html=1;" parent="1" vertex="1">
          <mxGeometry x="170" y="480" width="50" height="40" as="geometry" />
        </mxCell>
        <mxCell id="0ocH-njk53vqZ1iDUbSj-19" value="2A" style="rounded=0;whiteSpace=wrap;html=1;" parent="1" vertex="1">
          <mxGeometry x="220" y="480" width="50" height="40" as="geometry" />
        </mxCell>
        <mxCell id="0ocH-njk53vqZ1iDUbSj-20" value="2B" style="rounded=0;whiteSpace=wrap;html=1;" parent="1" vertex="1">
          <mxGeometry x="270" y="480" width="50" height="40" as="geometry" />
        </mxCell>
        <mxCell id="0ocH-njk53vqZ1iDUbSj-21" value="GND" style="rounded=0;whiteSpace=wrap;html=1;" parent="1" vertex="1">
          <mxGeometry x="370" y="480" width="50" height="40" as="geometry" />
        </mxCell>
        <mxCell id="2zPOfcOmFPMckhyHYjxx-17" style="edgeStyle=orthogonalEdgeStyle;rounded=0;orthogonalLoop=1;jettySize=auto;html=1;entryX=0.5;entryY=0;entryDx=0;entryDy=0;" edge="1" parent="1" source="0ocH-njk53vqZ1iDUbSj-22" target="0ocH-njk53vqZ1iDUbSj-40">
          <mxGeometry relative="1" as="geometry">
            <Array as="points">
              <mxPoint x="345" y="590" />
              <mxPoint x="125" y="590" />
            </Array>
          </mxGeometry>
        </mxCell>
        <mxCell id="0ocH-njk53vqZ1iDUbSj-22" value="2Y" style="rounded=0;whiteSpace=wrap;html=1;" parent="1" vertex="1">
          <mxGeometry x="320" y="480" width="50" height="40" as="geometry" />
        </mxCell>
        <mxCell id="0ocH-njk53vqZ1iDUbSj-31" value="4B" style="rounded=0;whiteSpace=wrap;html=1;" parent="1" vertex="1">
          <mxGeometry x="120" y="280" width="50" height="40" as="geometry" />
        </mxCell>
        <mxCell id="0ocH-njk53vqZ1iDUbSj-32" value="4A" style="rounded=0;whiteSpace=wrap;html=1;" parent="1" vertex="1">
          <mxGeometry x="170" y="280" width="50" height="40" as="geometry" />
        </mxCell>
        <mxCell id="0ocH-njk53vqZ1iDUbSj-33" value="4Y" style="rounded=0;whiteSpace=wrap;html=1;" parent="1" vertex="1">
          <mxGeometry x="220" y="280" width="50" height="40" as="geometry" />
        </mxCell>
        <mxCell id="0ocH-njk53vqZ1iDUbSj-34" value="3B" style="rounded=0;whiteSpace=wrap;html=1;" parent="1" vertex="1">
          <mxGeometry x="270" y="280" width="50" height="40" as="geometry" />
        </mxCell>
        <mxCell id="0ocH-njk53vqZ1iDUbSj-35" value="3Y" style="rounded=0;whiteSpace=wrap;html=1;" parent="1" vertex="1">
          <mxGeometry x="370" y="280" width="50" height="40" as="geometry" />
        </mxCell>
        <mxCell id="0ocH-njk53vqZ1iDUbSj-36" value="3A" style="rounded=0;whiteSpace=wrap;html=1;" parent="1" vertex="1">
          <mxGeometry x="320" y="280" width="50" height="40" as="geometry" />
        </mxCell>
        <mxCell id="0ocH-njk53vqZ1iDUbSj-38" value="Vcc" style="rounded=0;whiteSpace=wrap;html=1;" parent="1" vertex="1">
          <mxGeometry x="70" y="280" width="50" height="40" as="geometry" />
        </mxCell>
        <mxCell id="0ocH-njk53vqZ1iDUbSj-39" value="1A" style="rounded=0;whiteSpace=wrap;html=1;" parent="1" vertex="1">
          <mxGeometry x="70" y="480" width="50" height="40" as="geometry" />
        </mxCell>
        <mxCell id="0ocH-njk53vqZ1iDUbSj-40" value="RX" style="rounded=0;whiteSpace=wrap;html=1;" parent="1" vertex="1">
          <mxGeometry x="80" y="690" width="90" height="60" as="geometry" />
        </mxCell>
        <mxCell id="2zPOfcOmFPMckhyHYjxx-2" style="edgeStyle=orthogonalEdgeStyle;rounded=0;orthogonalLoop=1;jettySize=auto;html=1;entryX=0.5;entryY=1;entryDx=0;entryDy=0;strokeColor=#FF0000;" edge="1" parent="1" source="0ocH-njk53vqZ1iDUbSj-41" target="0ocH-njk53vqZ1iDUbSj-17">
          <mxGeometry relative="1" as="geometry">
            <Array as="points">
              <mxPoint x="320" y="620" />
              <mxPoint x="145" y="620" />
            </Array>
          </mxGeometry>
        </mxCell>
        <mxCell id="0ocH-njk53vqZ1iDUbSj-41" value="TX" style="rounded=0;whiteSpace=wrap;html=1;" parent="1" vertex="1">
          <mxGeometry x="280" y="690" width="80" height="60" as="geometry" />
        </mxCell>
        <mxCell id="2zPOfcOmFPMckhyHYjxx-4" style="edgeStyle=orthogonalEdgeStyle;rounded=0;orthogonalLoop=1;jettySize=auto;html=1;entryX=0.5;entryY=1;entryDx=0;entryDy=0;strokeColor=#007FFF;" edge="1" parent="1" source="0ocH-njk53vqZ1iDUbSj-42" target="0ocH-njk53vqZ1iDUbSj-90">
          <mxGeometry relative="1" as="geometry" />
        </mxCell>
        <mxCell id="0ocH-njk53vqZ1iDUbSj-42" value="Control PIN" style="rounded=0;whiteSpace=wrap;html=1;" parent="1" vertex="1">
          <mxGeometry x="200" y="690" width="60" height="60" as="geometry" />
        </mxCell>
        <mxCell id="2zPOfcOmFPMckhyHYjxx-14" style="edgeStyle=orthogonalEdgeStyle;rounded=0;orthogonalLoop=1;jettySize=auto;html=1;entryX=1;entryY=0.5;entryDx=0;entryDy=0;" edge="1" parent="1" source="0ocH-njk53vqZ1iDUbSj-43" target="2zPOfcOmFPMckhyHYjxx-10">
          <mxGeometry relative="1" as="geometry">
            <Array as="points">
              <mxPoint x="145" y="250" />
              <mxPoint x="440" y="250" />
              <mxPoint x="440" y="565" />
            </Array>
          </mxGeometry>
        </mxCell>
        <mxCell id="0ocH-njk53vqZ1iDUbSj-43" value="Data_Dynomixels" style="rounded=0;whiteSpace=wrap;html=1;" parent="1" vertex="1">
          <mxGeometry x="77.5" y="160" width="135" height="60" as="geometry" />
        </mxCell>
        <mxCell id="0ocH-njk53vqZ1iDUbSj-61" value="CD4069UBE(НЕ)" style="rounded=0;whiteSpace=wrap;html=1;" parent="1" vertex="1">
          <mxGeometry x="550" y="280" width="350" height="240" as="geometry" />
        </mxCell>
        <mxCell id="0ocH-njk53vqZ1iDUbSj-62" value="" style="shape=requiredInterface;html=1;verticalLabelPosition=bottom;sketch=0;" parent="1" vertex="1">
          <mxGeometry x="550" y="375" width="40" height="50" as="geometry" />
        </mxCell>
        <mxCell id="2zPOfcOmFPMckhyHYjxx-16" style="edgeStyle=orthogonalEdgeStyle;rounded=0;orthogonalLoop=1;jettySize=auto;html=1;entryX=0.5;entryY=1;entryDx=0;entryDy=0;" edge="1" parent="1" source="0ocH-njk53vqZ1iDUbSj-63" target="0ocH-njk53vqZ1iDUbSj-19">
          <mxGeometry relative="1" as="geometry">
            <Array as="points">
              <mxPoint x="625" y="600" />
              <mxPoint x="245" y="600" />
            </Array>
          </mxGeometry>
        </mxCell>
        <mxCell id="0ocH-njk53vqZ1iDUbSj-63" value="!A" style="rounded=0;whiteSpace=wrap;html=1;" parent="1" vertex="1">
          <mxGeometry x="600" y="480" width="50" height="40" as="geometry" />
        </mxCell>
        <mxCell id="0ocH-njk53vqZ1iDUbSj-64" value="B" style="rounded=0;whiteSpace=wrap;html=1;" parent="1" vertex="1">
          <mxGeometry x="650" y="480" width="50" height="40" as="geometry" />
        </mxCell>
        <mxCell id="0ocH-njk53vqZ1iDUbSj-65" value="!B" style="rounded=0;whiteSpace=wrap;html=1;" parent="1" vertex="1">
          <mxGeometry x="700" y="480" width="50" height="40" as="geometry" />
        </mxCell>
        <mxCell id="0ocH-njk53vqZ1iDUbSj-66" value="C" style="rounded=0;whiteSpace=wrap;html=1;" parent="1" vertex="1">
          <mxGeometry x="750" y="480" width="50" height="40" as="geometry" />
        </mxCell>
        <mxCell id="0ocH-njk53vqZ1iDUbSj-67" value="GND" style="rounded=0;whiteSpace=wrap;html=1;" parent="1" vertex="1">
          <mxGeometry x="850" y="480" width="50" height="40" as="geometry" />
        </mxCell>
        <mxCell id="0ocH-njk53vqZ1iDUbSj-68" value="!C" style="rounded=0;whiteSpace=wrap;html=1;" parent="1" vertex="1">
          <mxGeometry x="800" y="480" width="50" height="40" as="geometry" />
        </mxCell>
        <mxCell id="0ocH-njk53vqZ1iDUbSj-69" value="F" style="rounded=0;whiteSpace=wrap;html=1;" parent="1" vertex="1">
          <mxGeometry x="600" y="280" width="50" height="40" as="geometry" />
        </mxCell>
        <mxCell id="0ocH-njk53vqZ1iDUbSj-70" value="!F" style="rounded=0;whiteSpace=wrap;html=1;" parent="1" vertex="1">
          <mxGeometry x="650" y="280" width="50" height="40" as="geometry" />
        </mxCell>
        <mxCell id="0ocH-njk53vqZ1iDUbSj-71" value="E" style="rounded=0;whiteSpace=wrap;html=1;" parent="1" vertex="1">
          <mxGeometry x="700" y="280" width="50" height="40" as="geometry" />
        </mxCell>
        <mxCell id="0ocH-njk53vqZ1iDUbSj-72" value="!E" style="rounded=0;whiteSpace=wrap;html=1;" parent="1" vertex="1">
          <mxGeometry x="750" y="280" width="50" height="40" as="geometry" />
        </mxCell>
        <mxCell id="0ocH-njk53vqZ1iDUbSj-73" value="!D" style="rounded=0;whiteSpace=wrap;html=1;" parent="1" vertex="1">
          <mxGeometry x="850" y="280" width="50" height="40" as="geometry" />
        </mxCell>
        <mxCell id="0ocH-njk53vqZ1iDUbSj-74" value="D" style="rounded=0;whiteSpace=wrap;html=1;" parent="1" vertex="1">
          <mxGeometry x="800" y="280" width="50" height="40" as="geometry" />
        </mxCell>
        <mxCell id="0ocH-njk53vqZ1iDUbSj-75" value="Vcc" style="rounded=0;whiteSpace=wrap;html=1;" parent="1" vertex="1">
          <mxGeometry x="550" y="280" width="50" height="40" as="geometry" />
        </mxCell>
        <mxCell id="0ocH-njk53vqZ1iDUbSj-76" value="A" style="rounded=0;whiteSpace=wrap;html=1;" parent="1" vertex="1">
          <mxGeometry x="550" y="480" width="50" height="40" as="geometry" />
        </mxCell>
        <mxCell id="2zPOfcOmFPMckhyHYjxx-5" style="edgeStyle=orthogonalEdgeStyle;rounded=0;orthogonalLoop=1;jettySize=auto;html=1;entryX=0.5;entryY=1;entryDx=0;entryDy=0;strokeColor=#007FFF;" edge="1" parent="1" source="0ocH-njk53vqZ1iDUbSj-90" target="0ocH-njk53vqZ1iDUbSj-39">
          <mxGeometry relative="1" as="geometry" />
        </mxCell>
        <mxCell id="2zPOfcOmFPMckhyHYjxx-15" style="edgeStyle=orthogonalEdgeStyle;rounded=0;orthogonalLoop=1;jettySize=auto;html=1;entryX=0.5;entryY=1;entryDx=0;entryDy=0;strokeColor=#007FFF;" edge="1" parent="1" source="0ocH-njk53vqZ1iDUbSj-90" target="0ocH-njk53vqZ1iDUbSj-76">
          <mxGeometry relative="1" as="geometry" />
        </mxCell>
        <mxCell id="0ocH-njk53vqZ1iDUbSj-90" value="" style="ellipse;whiteSpace=wrap;html=1;labelBackgroundColor=#000000;labelBorderColor=default;gradientColor=none;fillColor=#000000;" parent="1" vertex="1">
          <mxGeometry x="225" y="640" width="10" height="10" as="geometry" />
        </mxCell>
        <mxCell id="2zPOfcOmFPMckhyHYjxx-11" style="edgeStyle=orthogonalEdgeStyle;rounded=0;orthogonalLoop=1;jettySize=auto;html=1;exitX=0.5;exitY=0;exitDx=0;exitDy=0;entryX=0.5;entryY=1;entryDx=0;entryDy=0;strokeColor=#FF00FF;" edge="1" parent="1" source="2zPOfcOmFPMckhyHYjxx-10" target="0ocH-njk53vqZ1iDUbSj-20">
          <mxGeometry relative="1" as="geometry" />
        </mxCell>
        <mxCell id="2zPOfcOmFPMckhyHYjxx-13" style="edgeStyle=orthogonalEdgeStyle;rounded=0;orthogonalLoop=1;jettySize=auto;html=1;entryX=0.5;entryY=1;entryDx=0;entryDy=0;strokeColor=#00FF00;" edge="1" parent="1" source="2zPOfcOmFPMckhyHYjxx-10" target="0ocH-njk53vqZ1iDUbSj-43">
          <mxGeometry relative="1" as="geometry">
            <Array as="points">
              <mxPoint x="440" y="565" />
              <mxPoint x="440" y="250" />
              <mxPoint x="145" y="250" />
            </Array>
          </mxGeometry>
        </mxCell>
        <mxCell id="2zPOfcOmFPMckhyHYjxx-10" value="" style="ellipse;whiteSpace=wrap;html=1;labelBackgroundColor=#000000;labelBorderColor=default;gradientColor=none;fillColor=#FF00FF;" vertex="1" parent="1">
          <mxGeometry x="290" y="560" width="10" height="10" as="geometry" />
        </mxCell>
      </root>
    </mxGraphModel>
  </diagram>
</mxfile>
